<mxfile host="app.diagrams.net" modified="2021-05-11T01:38:37.721Z" agent="5.0 (Windows NT 10.0; Win64; x64) AppleWebKit/537.36 (KHTML, like Gecko) Chrome/90.0.4430.93 Safari/537.36" etag="RJQruBFxVNJA-XWAvM_D" version="14.6.11" type="github">
  <diagram id="8VPi2cGqQbzCCo8EoeAs" name="Page-1">
    <mxGraphModel dx="1422" dy="794" grid="1" gridSize="10" guides="1" tooltips="1" connect="1" arrows="1" fold="1" page="1" pageScale="1" pageWidth="850" pageHeight="1100" math="0" shadow="0">
      <root>
        <mxCell id="0" />
        <mxCell id="1" parent="0" />
        <mxCell id="v69CfIGbdIcfvdHq4Jd4-1" value="Tiktok&amp;nbsp;" style="strokeWidth=1;shadow=0;dashed=0;align=center;html=1;shape=mxgraph.mockup.containers.browserWindow;rSize=0;strokeColor=#666666;strokeColor2=#008cff;strokeColor3=#c4c4c4;mainText=,;recursiveResize=0;" vertex="1" parent="1">
          <mxGeometry x="80" y="140" width="730" height="720" as="geometry" />
        </mxCell>
        <mxCell id="v69CfIGbdIcfvdHq4Jd4-2" value="Tiktok" style="strokeWidth=1;shadow=0;dashed=0;align=center;html=1;shape=mxgraph.mockup.containers.anchor;fontSize=17;fontColor=#666666;align=left;" vertex="1" parent="v69CfIGbdIcfvdHq4Jd4-1">
          <mxGeometry x="60" y="12" width="110" height="26" as="geometry" />
        </mxCell>
        <mxCell id="v69CfIGbdIcfvdHq4Jd4-3" value="https://www.draw.io" style="strokeWidth=1;shadow=0;dashed=0;align=center;html=1;shape=mxgraph.mockup.containers.anchor;rSize=0;fontSize=17;fontColor=#666666;align=left;" vertex="1" parent="v69CfIGbdIcfvdHq4Jd4-1">
          <mxGeometry x="130" y="60" width="250" height="26" as="geometry" />
        </mxCell>
        <mxCell id="v69CfIGbdIcfvdHq4Jd4-4" value="" style="rounded=0;whiteSpace=wrap;html=1;" vertex="1" parent="v69CfIGbdIcfvdHq4Jd4-1">
          <mxGeometry x="10" y="120" width="710" height="580" as="geometry" />
        </mxCell>
        <mxCell id="v69CfIGbdIcfvdHq4Jd4-5" value="&lt;font style=&quot;font-size: 19px&quot;&gt;Tiktok&lt;/font&gt;" style="rounded=0;whiteSpace=wrap;html=1;" vertex="1" parent="v69CfIGbdIcfvdHq4Jd4-1">
          <mxGeometry x="20" y="130" width="690" height="130" as="geometry" />
        </mxCell>
        <mxCell id="v69CfIGbdIcfvdHq4Jd4-6" value="" style="rounded=0;whiteSpace=wrap;html=1;" vertex="1" parent="v69CfIGbdIcfvdHq4Jd4-1">
          <mxGeometry x="20" y="270" width="240" height="160" as="geometry" />
        </mxCell>
        <mxCell id="v69CfIGbdIcfvdHq4Jd4-7" value="&lt;font style=&quot;font-size: 12px&quot;&gt;&lt;span lang=&quot;EN-US&quot; class=&quot;TextRun SCXW96881569 BCX0&quot; style=&quot;margin: 0px ; padding: 0px ; color: rgb(0 , 0 , 0) ; font-style: normal ; font-weight: 400 ; letter-spacing: normal ; text-align: left ; text-indent: 0px ; text-transform: none ; word-spacing: 0px ; background-color: rgb(255 , 255 , 255) ; line-height: 19.425px ; font-family: &amp;#34;calibri&amp;#34; , &amp;#34;calibri_embeddedfont&amp;#34; , &amp;#34;calibri_msfontservice&amp;#34; , sans-serif&quot;&gt;&lt;span class=&quot;NormalTextRun SCXW96881569 BCX0&quot; style=&quot;margin: 0px ; padding: 0px&quot;&gt;Tiktok is a video-sharing social interworking service owned by&lt;span&gt;&amp;nbsp;&lt;/span&gt;&lt;/span&gt;&lt;/span&gt;&lt;span lang=&quot;EN-US&quot; class=&quot;TextRun SCXW96881569 BCX0&quot; style=&quot;margin: 0px ; padding: 0px ; color: rgb(0 , 0 , 0) ; font-style: normal ; font-weight: 400 ; letter-spacing: normal ; text-align: left ; text-indent: 0px ; text-transform: none ; word-spacing: 0px ; background-color: rgb(255 , 255 , 255) ; line-height: 19.425px ; font-family: &amp;#34;calibri&amp;#34; , &amp;#34;calibri_embeddedfont&amp;#34; , &amp;#34;calibri_msfontservice&amp;#34; , sans-serif&quot;&gt;&lt;span class=&quot;NormalTextRun SCXW96881569 BCX0&quot; style=&quot;margin: 0px ; padding: 0px&quot;&gt;a Chinese company Byte Dance.&lt;/span&gt;&lt;/span&gt;&lt;span lang=&quot;EN-US&quot; class=&quot;TextRun SCXW96881569 BCX0&quot; style=&quot;margin: 0px ; padding: 0px ; color: rgb(0 , 0 , 0) ; font-style: normal ; font-weight: 400 ; letter-spacing: normal ; text-align: left ; text-indent: 0px ; text-transform: none ; word-spacing: 0px ; background-color: rgb(255 , 255 , 255) ; line-height: 19.425px ; font-family: &amp;#34;calibri&amp;#34; , &amp;#34;calibri_embeddedfont&amp;#34; , &amp;#34;calibri_msfontservice&amp;#34; , sans-serif&quot;&gt;&lt;span class=&quot;NormalTextRun SCXW96881569 BCX0&quot; style=&quot;margin: 0px ; padding: 0px&quot;&gt;&lt;span&gt;&amp;nbsp;&lt;/span&gt;&lt;/span&gt;&lt;/span&gt;&lt;span lang=&quot;EN-US&quot; class=&quot;TextRun SCXW96881569 BCX0&quot; style=&quot;margin: 0px ; padding: 0px ; color: rgb(0 , 0 , 0) ; font-style: normal ; font-weight: 400 ; letter-spacing: normal ; text-align: left ; text-indent: 0px ; text-transform: none ; word-spacing: 0px ; background-color: rgb(255 , 255 , 255) ; line-height: 19.425px ; font-family: &amp;#34;calibri&amp;#34; , &amp;#34;calibri_embeddedfont&amp;#34; , &amp;#34;calibri_msfontservice&amp;#34; , sans-serif&quot;&gt;&lt;span class=&quot;NormalTextRun SCXW96881569 BCX0&quot; style=&quot;margin: 0px ; padding: 0px&quot;&gt;The social media platform is used to make a variety of&lt;span&gt;&amp;nbsp;&lt;/span&gt;&lt;/span&gt;&lt;/span&gt;&lt;span lang=&quot;EN-US&quot; class=&quot;TextRun SCXW96881569 BCX0&quot; style=&quot;margin: 0px ; padding: 0px ; color: rgb(0 , 0 , 0) ; font-style: normal ; font-weight: 400 ; letter-spacing: normal ; text-align: left ; text-indent: 0px ; text-transform: none ; word-spacing: 0px ; background-color: rgb(255 , 255 , 255) ; line-height: 19.425px ; font-family: &amp;#34;calibri&amp;#34; , &amp;#34;calibri_embeddedfont&amp;#34; , &amp;#34;calibri_msfontservice&amp;#34; , sans-serif&quot;&gt;&lt;span class=&quot;NormalTextRun SCXW96881569 BCX0&quot; style=&quot;margin: 0px ; padding: 0px&quot;&gt;short, filmed&lt;/span&gt;&lt;/span&gt;&lt;span lang=&quot;EN-US&quot; class=&quot;TextRun SCXW96881569 BCX0&quot; style=&quot;margin: 0px ; padding: 0px ; color: rgb(0 , 0 , 0) ; font-style: normal ; font-weight: 400 ; letter-spacing: normal ; text-align: left ; text-indent: 0px ; text-transform: none ; word-spacing: 0px ; background-color: rgb(255 , 255 , 255) ; line-height: 19.425px ; font-family: &amp;#34;calibri&amp;#34; , &amp;#34;calibri_embeddedfont&amp;#34; , &amp;#34;calibri_msfontservice&amp;#34; , sans-serif&quot;&gt;&lt;span class=&quot;NormalTextRun SCXW96881569 BCX0&quot; style=&quot;margin: 0px ; padding: 0px&quot;&gt;&lt;span&gt;&amp;nbsp;&lt;/span&gt;videos, from genres like&lt;/span&gt;&lt;/span&gt;&lt;span lang=&quot;EN-US&quot; class=&quot;TextRun SCXW96881569 BCX0&quot; style=&quot;margin: 0px ; padding: 0px ; color: rgb(0 , 0 , 0) ; font-style: normal ; font-weight: 400 ; letter-spacing: normal ; text-align: left ; text-indent: 0px ; text-transform: none ; word-spacing: 0px ; background-color: rgb(255 , 255 , 255) ; line-height: 19.425px ; font-family: &amp;#34;calibri&amp;#34; , &amp;#34;calibri_embeddedfont&amp;#34; , &amp;#34;calibri_msfontservice&amp;#34; , sans-serif&quot;&gt;&lt;span class=&quot;NormalTextRun SCXW96881569 BCX0&quot; style=&quot;margin: 0px ; padding: 0px&quot;&gt;&lt;span&gt;&amp;nbsp;&lt;/span&gt;dance, comedy and education, that have duration of 15-60seconds. &lt;br&gt;Tiktok is a&lt;/span&gt;&lt;/span&gt;&lt;span lang=&quot;EN-US&quot; class=&quot;TextRun SCXW96881569 BCX0&quot; style=&quot;margin: 0px ; padding: 0px ; color: rgb(0 , 0 , 0) ; font-style: normal ; font-weight: 400 ; letter-spacing: normal ; text-align: left ; text-indent: 0px ; text-transform: none ; word-spacing: 0px ; background-color: rgb(255 , 255 , 255) ; line-height: 19.425px ; font-family: &amp;#34;calibri&amp;#34; , &amp;#34;calibri_embeddedfont&amp;#34; , &amp;#34;calibri_msfontservice&amp;#34; , sans-serif&quot;&gt;&lt;span class=&quot;NormalTextRun SCXW96881569 BCX0&quot; style=&quot;margin: 0px ; padding: 0px&quot;&gt;n international version of Douyin, which was originally released in a Chinese market in September&lt;span&gt;&amp;nbsp;&lt;/span&gt;&lt;/span&gt;&lt;/span&gt;&lt;span lang=&quot;EN-US&quot; class=&quot;TextRun SCXW96881569 BCX0&quot; style=&quot;margin: 0px ; padding: 0px ; color: rgb(0 , 0 , 0) ; font-style: normal ; font-weight: 400 ; letter-spacing: normal ; text-align: left ; text-indent: 0px ; text-transform: none ; word-spacing: 0px ; background-color: rgb(255 , 255 , 255) ; line-height: 19.425px ; font-family: &amp;#34;calibri&amp;#34; , &amp;#34;calibri_embeddedfont&amp;#34; , &amp;#34;calibri_msfontservice&amp;#34; , sans-serif&quot;&gt;&lt;span class=&quot;NormalTextRun SCXW96881569 BCX0&quot; style=&quot;margin: 0px ; padding: 0px&quot;&gt;2016. Later&lt;/span&gt;&lt;/span&gt;&lt;span lang=&quot;EN-US&quot; class=&quot;TextRun SCXW96881569 BCX0&quot; style=&quot;margin: 0px ; padding: 0px ; color: rgb(0 , 0 , 0) ; font-style: normal ; font-weight: 400 ; letter-spacing: normal ; text-align: left ; text-indent: 0px ; text-transform: none ; word-spacing: 0px ; background-color: rgb(255 , 255 , 255) ; line-height: 19.425px ; font-family: &amp;#34;calibri&amp;#34; , &amp;#34;calibri_embeddedfont&amp;#34; , &amp;#34;calibri_msfontservice&amp;#34; , sans-serif&quot;&gt;&lt;span class=&quot;NormalTextRun SCXW96881569 BCX0&quot; style=&quot;margin: 0px ; padding: 0px&quot;&gt;, Tiktok was launched in 2017 for IOS and Android in most markets outside of the&lt;span&gt;&amp;nbsp;&lt;/span&gt;&lt;/span&gt;&lt;/span&gt;&lt;span lang=&quot;EN-US&quot; class=&quot;TextRun SCXW96881569 BCX0&quot; style=&quot;margin: 0px ; padding: 0px ; color: rgb(0 , 0 , 0) ; font-style: normal ; font-weight: 400 ; letter-spacing: normal ; text-align: left ; text-indent: 0px ; text-transform: none ; word-spacing: 0px ; background-color: rgb(255 , 255 , 255) ; line-height: 19.425px ; font-family: &amp;#34;calibri&amp;#34; , &amp;#34;calibri_embeddedfont&amp;#34; , &amp;#34;calibri_msfontservice&amp;#34; , sans-serif&quot;&gt;&lt;span class=&quot;NormalTextRun SCXW96881569 BCX0&quot; style=&quot;margin: 0px ; padding: 0px&quot;&gt;mainland china; however, it only became worldwide after merging with another Chinese social&lt;/span&gt;&lt;/span&gt;&lt;span lang=&quot;EN-US&quot; class=&quot;TextRun SCXW96881569 BCX0&quot; style=&quot;margin: 0px ; padding: 0px ; color: rgb(0 , 0 , 0) ; font-style: normal ; font-weight: 400 ; letter-spacing: normal ; text-align: left ; text-indent: 0px ; text-transform: none ; word-spacing: 0px ; background-color: rgb(255 , 255 , 255) ; line-height: 19.425px ; font-family: &amp;#34;calibri&amp;#34; , &amp;#34;calibri_embeddedfont&amp;#34; , &amp;#34;calibri_msfontservice&amp;#34; , sans-serif&quot;&gt;&lt;span class=&quot;NormalTextRun SCXW96881569 BCX0&quot; style=&quot;margin: 0px ; padding: 0px&quot;&gt;&lt;span&gt;&amp;nbsp;&lt;/span&gt;media service, Musical.ly, on 2 august 2018&lt;/span&gt;&lt;/span&gt;&lt;span class=&quot;EOP SCXW96881569 BCX0&quot; style=&quot;margin: 0px ; padding: 0px ; color: rgb(0 , 0 , 0) ; font-style: normal ; font-weight: 400 ; letter-spacing: normal ; text-align: left ; text-indent: 0px ; text-transform: none ; word-spacing: 0px ; background-color: rgb(255 , 255 , 255) ; line-height: 19.425px ; font-family: &amp;#34;calibri&amp;#34; , &amp;#34;calibri_embeddedfont&amp;#34; , &amp;#34;calibri_msfontservice&amp;#34; , sans-serif&quot;&gt;&amp;nbsp;&lt;/span&gt;&lt;br&gt;&lt;/font&gt;" style="rounded=0;whiteSpace=wrap;html=1;" vertex="1" parent="v69CfIGbdIcfvdHq4Jd4-1">
          <mxGeometry x="270" y="270" width="440" height="160" as="geometry" />
        </mxCell>
        <mxCell id="v69CfIGbdIcfvdHq4Jd4-8" value="" style="rounded=0;whiteSpace=wrap;html=1;" vertex="1" parent="v69CfIGbdIcfvdHq4Jd4-1">
          <mxGeometry x="20" y="440" width="240" height="130" as="geometry" />
        </mxCell>
        <mxCell id="v69CfIGbdIcfvdHq4Jd4-9" value="" style="rounded=0;whiteSpace=wrap;html=1;" vertex="1" parent="v69CfIGbdIcfvdHq4Jd4-1">
          <mxGeometry x="270" y="440" width="270" height="130" as="geometry" />
        </mxCell>
        <mxCell id="v69CfIGbdIcfvdHq4Jd4-11" value="" style="rounded=0;whiteSpace=wrap;html=1;" vertex="1" parent="v69CfIGbdIcfvdHq4Jd4-1">
          <mxGeometry x="550" y="440" width="160" height="130" as="geometry" />
        </mxCell>
        <mxCell id="v69CfIGbdIcfvdHq4Jd4-12" value="" style="rounded=0;whiteSpace=wrap;html=1;" vertex="1" parent="v69CfIGbdIcfvdHq4Jd4-1">
          <mxGeometry x="20" y="580" width="690" height="70" as="geometry" />
        </mxCell>
        <mxCell id="v69CfIGbdIcfvdHq4Jd4-14" value="" style="rounded=0;whiteSpace=wrap;html=1;" vertex="1" parent="v69CfIGbdIcfvdHq4Jd4-1">
          <mxGeometry x="20" y="660" width="690" height="30" as="geometry" />
        </mxCell>
        <mxCell id="v69CfIGbdIcfvdHq4Jd4-15" value="" style="rounded=0;whiteSpace=wrap;html=1;" vertex="1" parent="v69CfIGbdIcfvdHq4Jd4-1">
          <mxGeometry x="570" y="460" width="120" height="90" as="geometry" />
        </mxCell>
        <mxCell id="v69CfIGbdIcfvdHq4Jd4-16" value="" style="rounded=0;whiteSpace=wrap;html=1;" vertex="1" parent="v69CfIGbdIcfvdHq4Jd4-1">
          <mxGeometry x="290" y="460" width="230" height="90" as="geometry" />
        </mxCell>
      </root>
    </mxGraphModel>
  </diagram>
</mxfile>
